PathFileType	4	(X/Y/Z)	C:/Users/opensim2020/Desktop/walking_exp_matlab/subject02_walking13_straight_01.trc																																																																																																																									
DataRate	CameraRate	NumFrames	NumMarkers	Units	OrigDataRate	OrigDataStartFrame	OrigNumFrames																																																																																																																					
100	100	8	41	mm	100	474	140																																																																																																																					
Frame#	Time	LFHD			RFHD			LBHD			RBHD			C7			T10			CLAV			STRN			RBAK			LSHO			LUPA			LELB			LFRM			LWRA			LWRB			LFIN			RSHO			RUPA			RELB			RFRM			RWRA			RWRB			RFIN			LASI			RASI			LPSI			RPSI			LTHI			LKNE			LTIB			LANK			LHEE			LTOE			RTHI			RKNE			RTIB			RANK			RHEE			RTOE			*39			*40		
		X1	Y1	Z1	X2	Y2	Z2	X3	Y3	Z3	X4	Y4	Z4	X5	Y5	Z5	X6	Y6	Z6	X7	Y7	Z7	X8	Y8	Z8	X9	Y9	Z9	X10	Y10	Z10	X11	Y11	Z11	X12	Y12	Z12	X13	Y13	Z13	X14	Y14	Z14	X15	Y15	Z15	X16	Y16	Z16	X17	Y17	Z17	X18	Y18	Z18	X19	Y19	Z19	X20	Y20	Z20	X21	Y21	Z21	X22	Y22	Z22	X23	Y23	Z23	X24	Y24	Z24	X25	Y25	Z25	X26	Y26	Z26	X27	Y27	Z27	X28	Y28	Z28	X29	Y29	Z29	X30	Y30	Z30	X31	Y31	Z31	X32	Y32	Z32	X33	Y33	Z33	X34	Y34	Z34	X35	Y35	Z35	X36	Y36	Z36	X37	Y37	Z37	X38	Y38	Z38	X39	Y39	Z39	X40	Y40	Z40	X41	Y41	Z41
																																																																																																																												
71	0.7	-43.58733	1702.55237	-1088.85974	-71.48681	1679.79688	-948.62213	-171.53438	1631.26904	-1125.2146	-211.37439	1607.17151	-989.30334	-242.47678	1486.68665	-1056.99866	-291.05231	1208.98193	-1042.82275	-102.36731	1418.40161	-1062.5083	-48.55322	1247.89905	-1058.45691	-300.92441	1307.92212	-997.9137	-163.29082	1465.24207	-1231.02625	-118.9279	1285.21692	-1333.65613	-57.74463	1158.75989	-1367.80811	52.07564	1080.44946	-1373.51819	181.99843	1056.15808	-1337.41821	154.98087	1014.95764	-1365.32068	218.03519	999.78662	-1373.05835	-175.18457	1449.02905	-867.63531	-243.65298	1270.59204	-791.35272	-261.84604	1125.67822	-774.68445	-263.06332	1004.93854	-755.19855	-244.04735	870.7561	-773.26196	-292.74933	878.31531	-743.54425	-271.78131	808.81403	-740.24304	-80.7689	947.06641	-1202.4895	-31.13853	947.03284	-947.11237	-270.8252	993.3949	-1078.24512	-257.5881	993.06592	-965.97644	-234.00124	656.05475	-1235.20435	-321.43799	474.94431	-1200.84888	-457.84848	336.12439	-1193.09558	-555.82019	130.12244	-1159.49915	-594.66046	124.45387	-1107.56934	-430.47705	30.67584	-1165.27222	-13.04185	654.36798	-864.19012	49.68901	459.08273	-916.3222	68.42319	270.26553	-919.06512	115.61936	83.62096	-961.25275	101.4746	32.60477	-1021.63739	279.04211	65.17064	-954.14349	-159.88229	1767.02222	-1017.5155	2845.28589	1034.43542	-3360.41431
72	0.71	-29.48165	1701.34534	-1087.90967	-57.61338	1678.68542	-947.44836	-157.37709	1629.57581	-1124.06628	-196.77773	1605.62561	-987.78485	-229.00169	1485.05591	-1055.29431	-275.52252	1207.03271	-1040.81201	-88.05031	1417.32068	-1061.04272	-33.09475	1247.66101	-1056.81006	-286.78271	1306.1344	-996.73975	-149.52162	1463.87952	-1229.27795	-105.84874	1283.74902	-1331.73279	-45.28961	1157.5459	-1366.86194	64.75864	1079.41528	-1372.61902	195.01781	1055.54932	-1336.87659	167.92545	1014.12714	-1364.52527	230.94986	999.18488	-1372.20239	-161.38597	1447.71228	-866.12067	-228.67076	1269.0769	-789.95715	-246.66884	1123.88782	-774.04266	-248.22816	1003.19427	-754.70563	-229.83304	868.91052	-773.55029	-277.50458	876.55914	-743.14996	-256.43628	806.82794	-739.91577	-62.68463	946.21979	-1201.23547	-13.62153	947.00659	-945.84637	-253.2691	991.88672	-1076.78271	-240.06073	991.28912	-964.73602	-217.33313	655.73047	-1235.21606	-304.53809	475.56049	-1202.78406	-445.27896	340.9075	-1193.78381	-549.50995	137.74474	-1161.2074	-586.44525	134.17676	-1108.21985	-430.30597	30.52535	-1165.58594	7.16888	654.44739	-863.13354	64.49033	456.88107	-914.95471	80.29514	268.11264	-922.65381	127.64029	84.76385	-960.24286	106.28202	36.13184	-1019.17072	290.65164	53.40179	-955.67487	-146.02766	1765.76331	-1016.77734	2845.12915	1034.37476	-3360.3252
73	0.72	-15.43625	1701.09595	-1086.68445	-43.57809	1678.76489	-946.22089	-143.09274	1629.05444	-1122.90723	-182.42685	1605.21436	-986.77045	-216.09186	1483.7887	-1053.53613	-259.68909	1206.18652	-1039.09058	-73.97829	1416.98315	-1059.56348	-17.96105	1248.46326	-1055.23889	-271.65631	1304.94202	-995.6734	-135.89999	1462.94495	-1227.7467	-92.77849	1282.90698	-1330.83167	-33.11414	1156.19177	-1365.90503	77.01759	1077.99463	-1371.72034	207.06831	1054.21436	-1336.01648	180.18185	1012.7691	-1363.63416	243.23329	997.98578	-1371.69385	-147.56508	1446.87683	-864.37964	-213.69208	1267.92615	-788.18542	-231.3679	1122.27905	-773.12122	-232.46107	1001.47253	-753.91394	-213.22185	867.46344	-772.61389	-261.81906	874.72302	-742.76538	-240.74025	805.22253	-739.83801	-44.51684	945.52966	-1199.34985	2.77169	946.95294	-944.39691	-236.42735	990.66785	-1075.55762	-222.78207	990.56158	-963.42072	-200.13095	655.64087	-1235.49072	-286.1445	476.16019	-1204.94165	-431.31284	346.1499	-1194.02039	-541.50873	146.1093	-1162.70789	-575.69849	144.826	-1108.86353	-430.43536	30.72676	-1166.25183	21.23403	655.36523	-861.34387	80.49579	457.69028	-914.15283	95.89798	270.3522	-919.56445	137.6812	85.89499	-959.38947	108.67448	37.65744	-1018.89331	294.93546	48.23182	-957.12512	-132.0312	1765.58167	-1015.69733	2846.09619	1034.20703	-3356.96362
74	0.73	-1.33808	1702.07129	-1085.49194	-29.72425	1679.81897	-945.0202	-128.99379	1629.8512	-1121.79773	-168.78941	1606.31494	-985.4184	-202.77202	1483.7998	-1051.71106	-244.16808	1205.85901	-1037.9895	-60.39703	1417.82007	-1058.01868	-3.03503	1249.90918	-1053.69263	-256.14926	1304.35925	-994.06903	-122.81383	1462.60107	-1226.63867	-79.9492	1281.89587	-1329.18359	-21.30812	1154.83752	-1364.66382	88.62598	1076.36597	-1370.67981	218.61339	1052.43298	-1335.08716	191.69466	1011.02716	-1362.70935	254.54683	996.00891	-1370.45203	-133.61746	1446.56531	-862.26648	-198.73924	1266.61414	-786.5321	-216.06512	1120.87671	-772.20819	-216.65594	1000.36157	-753.21613	-197.89143	866.2085	-772.95032	-245.59511	873.42529	-742.4845	-224.04597	803.8736	-739.31158	-26.67766	945.10181	-1196.53247	18.2042	947.00964	-942.65985	-219.84029	990.40173	-1074.98877	-205.85997	991.84631	-962.07477	-182.20769	655.66797	-1235.51514	-265.91226	476.45111	-1207.38501	-415.34415	351.9053	-1193.52051	-530.90179	155.06009	-1163.90295	-562.49017	155.69745	-1108.8457	-430.40341	31.01192	-1166.91687	33.25354	655.94501	-859.34216	99.92326	462.80399	-915.5827	114.28806	275.17749	-916.54938	139.18156	85.58412	-961.20038	109.05749	38.21139	-1019.18762	295.15836	44.53306	-959.27002	-118.0756	1766.54199	-1014.68475	2845.32104	1034.224	-3360.46606
75	0.74	12.44747	1703.29614	-1084.24121	-16.24316	1681.33789	-943.93512	-115.16191	1631.25269	-1120.59546	-155.18019	1607.61682	-984.13007	-188.80725	1484.81689	-1050.05505	-228.94139	1206.03699	-1037.31042	-46.96893	1419.43726	-1056.46423	11.87101	1251.79272	-1051.99048	-241.99059	1304.81946	-992.51013	-109.85265	1463.06812	-1225.95459	-67.52081	1281.28748	-1327.45483	-9.86842	1153.573	-1363.32068	99.50135	1074.71851	-1369.72766	229.17976	1050.02893	-1334.14111	202.16641	1008.79755	-1361.63403	264.95786	993.45148	-1369.31396	-119.50694	1446.5636	-860.32001	-183.25874	1266.1626	-784.61084	-199.39679	1119.9917	-771.2525	-199.91544	999.27722	-752.52332	-180.84271	865.49823	-772.49634	-228.76767	872.41736	-742.03687	-206.89108	803.18726	-739.01709	-9.4592	944.66833	-1193.22058	33.45272	947.85077	-940.61108	-203.94902	991.38672	-1075.06567	-189.70273	994.64594	-960.55627	-163.5408	655.59766	-1235.22461	-243.65225	476.00644	-1209.49402	-396.15875	357.01834	-1193.15466	-516.9256	163.79546	-1165.03308	-546.37592	166.53554	-1109.1781	-429.40051	31.09108	-1167.30249	45.92628	656.50269	-859.77094	118.70743	466.59665	-918.04059	129.02621	278.59012	-917.45068	141.52168	88.64593	-962.61096	110.0525	39.10789	-1018.90332	298.31598	43.42502	-962.53546	-104.39879	1768.01111	-1013.85388	2845.97046	1034.3053	-3357.01709
76	0.75	26.26782	1704.5061	-1083.224	-2.49185	1682.71533	-942.61298	-101.50108	1632.70044	-1119.42944	-142.0184	1609.63708	-983.37793	-174.37746	1486.41394	-1048.58142	-214.29555	1206.68005	-1036.70984	-33.35099	1421.30762	-1055.00415	26.75637	1253.84644	-1050.20654	-227.48161	1305.74524	-990.85248	-96.78941	1464.16919	-1225.31934	-55.53345	1280.93958	-1325.41174	0.92178	1152.76343	-1361.63403	109.53786	1072.93347	-1368.08459	239.21577	1047.21448	-1332.88391	211.60165	1006.25616	-1360.51184	274.39639	990.31311	-1368.09802	-105.56333	1447.36377	-858.51581	-167.57344	1266.01733	-783.00458	-182.73785	1119.8468	-770.45837	-183.17644	998.94574	-751.88788	-163.25616	865.44788	-771.99432	-211.02379	872.2926	-741.40771	-189.45232	803.11499	-738.85773	7.33409	944.71997	-1189.48804	48.58523	949.1828	-938.24286	-187.64404	992.5332	-1075.448	-174.37666	997.90668	-959.16125	-144.08966	654.68158	-1234.15247	-219.38586	474.52939	-1211.23047	-373.81039	360.68069	-1193.60645	-499.52951	172.03166	-1166.45459	-528.29059	177.67137	-1110.08167	-426.32596	30.89548	-1166.98267	59.46666	657.28082	-860.95477	135.24278	468.62518	-920.79303	141.36615	280.66397	-918.50385	146.66656	90.38897	-962.42206	111.47311	39.29288	-1018.90234	300.43787	42.31139	-962.6524	-90.52879	1769.53406	-1012.86865	2845.29248	1034.2135	-3360.42383
77	0.76	39.78328	1705.74988	-1082.09717	10.80575	1684.29553	-941.57013	-87.93634	1633.97168	-1118.26794	-128.51958	1610.9447	-982.39148	-160.31165	1488.00867	-1047.32703	-200.20477	1207.7345	-1036.13306	-19.57718	1423.1571	-1053.67383	41.42731	1255.91931	-1048.41431	-212.43933	1306.50012	-989.18707	-83.37437	1465.46643	-1224.6106	-43.78358	1281.15613	-1323.71631	11.1435	1152.41577	-1360.03064	118.75674	1071.19141	-1366.4845	248.0658	1043.77246	-1331.54224	220.08913	1003.27283	-1359.29553	282.73346	986.58154	-1366.82166	-92.03421	1448.78638	-857.31665	-151.25882	1266.69397	-781.26624	-165.10957	1120.30615	-769.6463	-165.06271	999.66382	-751.05042	-144.03979	866.27081	-771.53436	-192.65283	872.65405	-740.64172	-170.56236	803.47284	-738.64484	23.57685	945.33685	-1185.66455	63.40617	950.82745	-935.90991	-172.04247	993.67029	-1075.74622	-159.4483	1000.79437	-958.3125	-123.82315	653.0542	-1233.31213	-193.5054	472.26718	-1212.84155	-348.87756	362.57803	-1194.96985	-480.09448	179.97337	-1167.99658	-508.57855	188.58208	-1110.81006	-420.53241	32.81964	-1166.57031	74.76996	658.40332	-862.09222	149.61728	469.87329	-922.70752	149.13908	281.45544	-919.17407	148.4734	89.68798	-963.15375	111.74948	39.64241	-1019.27734	301.35947	41.61184	-962.76245	-76.7863	1771.20325	-1012.03918	2845.92847	1034.41736	-3357.14941
78	0.77	53.27678	1707.24463	-1081.12793	23.97285	1685.88062	-940.61957	-74.35552	1635.27979	-1117.35803	-115.02525	1612.51001	-981.29761	-146.63664	1489.33801	-1046.22961	-186.38506	1209.26233	-1035.52856	-5.66785	1424.94861	-1052.55127	55.80452	1257.92358	-1046.85413	-198.4903	1308.11755	-987.98535	-69.64671	1467.06018	-1223.37366	-32.51933	1281.6449	-1321.9231	20.76601	1152.10815	-1357.70667	127.23536	1069.43909	-1364.7301	256.23825	1039.92102	-1330.07471	227.53146	999.88434	-1357.95581	289.97983	982.14056	-1365.37231	-78.35064	1450.72742	-856.3714	-135.47513	1267.75598	-780.14886	-148.04388	1121.22729	-768.98291	-146.32312	1000.71387	-750.24243	-126.02609	867.16205	-770.93445	-173.31195	873.49695	-739.43579	-151.26762	804.17621	-737.95789	39.39558	946.33411	-1181.97412	77.90632	952.88434	-933.76837	-157.25922	994.92365	-1075.89587	-144.65404	1003.04291	-957.99756	-102.70869	650.75714	-1232.47839	-166.50986	469.87848	-1214.82886	-322.70886	363.11032	-1197.84863	-460.3183	188.14886	-1168.07556	-487.66031	198.91956	-1110.01587	-410.34106	37.90465	-1168.27747	92.04877	660.39508	-863.53827	161.24698	469.88922	-924.03149	153.74767	280.80716	-919.96936	149.44533	89.99713	-963.81567	111.62737	39.96536	-1019.48694	302.50397	41.13317	-963.97089	-63.36863	1772.8645	-1011.26343	2845.30713	1034.30066	-3360.41357
